Simulation
nRows=20
nColumns=15
endheader
time  TH_x TH_y TH_z SC_y  SC_z  SC_x  AC_y  AC_z  AC_x  GH_y  GH_z  GH_yy  EL_x  PS_y
0.0  0.000000  0.000000  0.000000  -27.862301513106427  -1.6895470085299962  14.023729867819592  55.04890555703474  -7.395637929328282  -16.362004644639907  -168.52724462105246  3.7513707807351278  -167.91939907994742  25.59954789942495  0.000000
0.015  0.000000  0.000000  0.000000  -27.899076935276526  -1.597622059628428  13.989203258507414  55.01818467866795  -7.132402998563538  -16.31811181748773  -168.75090682383052  3.52333269704434  -167.7958800607194  25.570982673103064  0.000000
0.03  0.000000  0.000000  0.000000  -27.85350829919586  -1.517442856479155  13.975418203822315  55.01656585081918  -6.925458023974626  -16.31539456381313  -169.28580223871919  3.246771149608576  -167.37035134347335  25.560749711669427  0.000000
0.045  0.000000  0.000000  0.000000  -27.860537146657784  -1.436534660155668  13.991151625619882  55.03281361992174  -6.7875586543027335  -16.314917268334394  -170.2685170384446  2.9007923038356482  -166.51842268886293  25.533353946933524  0.000000
0.06  0.000000  0.000000  0.000000  -27.882573619986278  -1.3628303680330476  14.03098250683334  55.02705555896819  -6.687927732336011  -16.31997308346524  -171.6745301755554  2.519834764705414  -165.29126824800227  25.50406148543162  0.000000
0.075  0.000000  0.000000  0.000000  -27.914229141480472  -1.2946050459987364  14.085714502794835  55.028211177395626  -6.626077952790188  -16.327518612711057  -174.12599644560981  2.100493162315216  -163.05796284225494  25.460232524827827  0.000000
0.09  0.000000  0.000000  0.000000  -27.954343454289067  -1.2292392378970296  14.154255722361249  55.02859286718658  -6.593559740412362  -16.337666049126632  -178.48770096099676  1.6559836720226648  -158.95700571205725  25.413727671300816  0.000000
0.105  0.000000  0.000000  0.000000  -28.00005590889637  -1.1641639278783915  14.2358142854075  55.02919486243296  -6.587959566172573  -16.346090495141787  173.01490709758517  1.2026354836389361  -150.75932464430002  25.361146585923166  0.000000
0.12  0.000000  0.000000  0.000000  -28.049784754236782  -1.0980040889313134  14.329699402812501  55.03144398226886  -6.606031147631149  -16.35389468632669  153.37001823329456  0.7907443802654376  -131.45322507213686  25.30555130945608  0.000000
0.135  0.000000  0.000000  0.000000  -28.10316399787254  -1.0284961636492242  14.437115206190825  55.03521113230768  -6.6468060120186125  -16.358711099142273  108.84236483166224  0.6091766645686836  -87.29996733081947  25.246653890704756  0.000000
0.15  0.000000  0.000000  0.000000  -28.158983068388036  -0.9552011676848203  14.55491301592504  55.04271067226254  -6.706078905615741  -16.359475306950362  67.56108815727923  0.8777870743405827  -46.42768010704528  25.184586706710686  0.000000
0.16499999999999998  0.000000  0.000000  0.000000  -28.218811527667622  -0.8785167481598694  14.681618808519227  55.05414908590509  -6.780664589712151  -16.353204911213744  49.89334563148775  1.3791801353447322  -29.198882869229994  25.118548744241924  0.000000
0.18  0.000000  0.000000  0.000000  -28.28305708206504  -0.798143868874699  14.811031633687026  55.07171126789112  -6.864105222302172  -16.337271259460866  41.75492768012113  1.961548455308885  -21.52614181472838  25.049218541353593  0.000000
0.195  0.000000  0.000000  0.000000  -28.353774809220113  -0.7131560927420819  14.943540468608358  55.09583928375828  -6.955070169704128  -16.310436394670724  37.18602122151885  2.5854762301622216  -17.444210331104216  24.976837554833004  0.000000
0.21  0.000000  0.000000  0.000000  -28.430388163213504  -0.6234821083071397  15.079609718893119  55.127607691426675  -7.051457592313528  -16.274498290587946  34.25438128387812  3.2384374017887945  -15.017774671833548  24.901400021014272  0.000000
0.22499999999999998  0.000000  0.000000  0.000000  -28.513029741925767  -0.5295606646154593  15.22236985307463  55.166413449791854  -7.151969646508215  -16.230815763261113  32.15904720222225  3.912997595492501  -13.441595412020222  24.822081585801804  0.000000
0.24  0.000000  0.000000  0.000000  -28.601429810315395  -0.4315880722227729  15.365051497634589  55.212848706538566  -7.247283905339361  -16.17709298611733  30.550981775411312  4.605128153674444  -12.364211980508916  24.7389805604794  0.000000
0.255  0.000000  0.000000  0.000000  -28.69764942212562  -0.3287711993403426  15.502627033031114  55.26709372827128  -7.330761815127971  -16.10985022019465  29.24031998108963  5.313005363537092  -11.59201975849443  24.652001476232805  0.000000
0.27  0.000000  0.000000  0.000000  -28.802549752153325  -0.22094227384673315  15.633909016780654  55.33019726071549  -7.399972346105677  -16.02970362670756  28.13888699415668  6.03641702972672  -11.034132335946465  24.56120398461393  0.000000
0.285  0.000000  0.000000  0.000000  -28.91775316128253  -0.10876646378830122  15.759226410096856  55.401845937048776  -7.453142472421149  -15.937235567626828  27.187301568825564  6.774567763793774  -10.62826840822748  24.46782854087793  0.000000
